<svg aria-hidden="true" style="position: absolute; width: 0; height: 0; overflow: hidden;" version="1.1"
    xmlns="http://www.w3.org/2000/svg" xmlns:xlink="http://www.w3.org/1999/xlink">
    <defs>
        <symbol id="icon-search" viewBox="0 0 32 32">
            <path
                d="M23.484 20.688c1.937-2.643 2.804-5.919 2.429-9.174s-1.966-6.248-4.453-8.38c-2.487-2.132-5.688-3.247-8.962-3.121s-6.379 1.484-8.695 3.801c-2.316 2.317-3.671 5.424-3.795 8.698s0.993 6.474 3.127 8.96c2.134 2.486 5.128 4.074 8.383 4.447s6.531-0.497 9.172-2.435h-0.002c0.060 0.080 0.124 0.156 0.196 0.23l7.7 7.7c0.375 0.375 0.884 0.586 1.414 0.586s1.040-0.21 1.415-0.585 0.586-0.884 0.586-1.414c0-0.53-0.21-1.039-0.585-1.415l-7.7-7.7c-0.072-0.072-0.148-0.139-0.23-0.2v0.002zM24 13c0 1.445-0.285 2.875-0.837 4.21s-1.363 2.547-2.384 3.569c-1.021 1.021-2.234 1.832-3.569 2.384s-2.765 0.837-4.21 0.837c-1.445 0-2.875-0.285-4.21-0.837s-2.547-1.363-3.569-2.384c-1.021-1.022-1.832-2.234-2.385-3.569s-0.837-2.765-0.837-4.21c0-2.917 1.159-5.715 3.222-7.778s4.861-3.222 7.778-3.222c2.917 0 5.715 1.159 7.778 3.222s3.222 4.861 3.222 7.778z">
            </path>
        </symbol>
        <symbol id="icon-ellipse" viewBox="0 0 64 32">
            <path
                d="M0 32c0-4.202 0.828-8.363 2.436-12.246s3.965-7.41 6.937-10.382c2.972-2.971 6.499-5.329 10.382-6.937s8.044-2.436 12.246-2.436 8.363 0.828 12.246 2.436c3.882 1.608 7.41 3.965 10.382 6.937s5.329 6.499 6.937 10.382c1.608 3.882 2.436 8.044 2.436 12.246h-64z">
            </path>
        </symbol>
        <symbol id="icon-user" viewBox="0 0 32 32">
            <path
                d="M8.647 24.571c-0.828 0.121-1.447 0.843-1.447 1.705-0.001 0.378 0.122 0.745 0.351 1.045 0.385 0.501 0.78 0.995 1.186 1.48h-2.062c-0.13-0.165-0.26-0.333-0.392-0.504-0.447-0.58-0.683-1.296-0.683-2.020 0-1.631 1.178-3.049 2.816-3.288 5.644-0.825 9.567-0.75 15.18 0.026 1.622 0.224 2.804 1.62 2.804 3.24 0.001 0.751-0.258 1.479-0.733 2.061-0.135 0.164-0.269 0.326-0.402 0.484h-2.113c0.436-0.49 0.861-0.99 1.277-1.498 0.238-0.291 0.37-0.664 0.37-1.048 0.003-0.401-0.14-0.79-0.402-1.094s-0.625-0.504-1.022-0.561c-5.483-0.759-9.254-0.828-14.73-0.028zM16 16.8c-1.273 0-2.494-0.506-3.394-1.406s-1.406-2.121-1.406-3.394c0-1.273 0.506-2.494 1.406-3.394s2.121-1.406 3.394-1.406c0.63 0 1.255 0.124 1.837 0.365s1.111 0.595 1.557 1.040c0.446 0.446 0.799 0.975 1.041 1.557s0.365 1.207 0.365 1.837c0 0.63-0.124 1.255-0.365 1.837s-0.595 1.112-1.041 1.557c-0.446 0.446-0.975 0.799-1.557 1.041s-1.207 0.365-1.837 0.365zM16 18.4c1.697 0 3.325-0.674 4.525-1.875s1.875-2.828 1.875-4.525c0-1.697-0.674-3.325-1.875-4.525s-2.828-1.875-4.525-1.875c-1.697 0-3.325 0.674-4.525 1.875s-1.875 2.828-1.875 4.525c0 1.697 0.674 3.325 1.875 4.525s2.828 1.875 4.525 1.875z">
            </path>
            <path
                d="M16 30.4c-7.953 0-14.4-6.447-14.4-14.4s6.447-14.4 14.4-14.4c7.953 0 14.4 6.447 14.4 14.4s-6.447 14.4-14.4 14.4zM16 32c8.837 0 16-7.163 16-16s-7.163-16-16-16c-8.837 0-16 7.163-16 16s7.163 16 16 16z">
            </path>
        </symbol>
        <symbol id="icon-location" viewBox="0 0 32 32">
            <path
                d="M16 30.4c-7.953 0-14.4-6.447-14.4-14.4s6.447-14.4 14.4-14.4c7.953 0 14.4 6.447 14.4 14.4s-6.447 14.4-14.4 14.4zM16 32c8.837 0 16-7.163 16-16s-7.163-16-16-16c-8.837 0-16 7.163-16 16s7.163 16 16 16z">
            </path>
            <path
                d="M17.5 14.857c0-0.455-0.158-0.891-0.439-1.212s-0.663-0.502-1.061-0.502c-0.398 0-0.779 0.181-1.061 0.502s-0.439 0.758-0.439 1.212c0 0.455 0.158 0.891 0.439 1.212s0.663 0.502 1.061 0.502c0.398 0 0.779-0.181 1.061-0.502s0.439-0.758 0.439-1.212zM22 14.857c0 3.285-3.097 6.875-4.841 8.638-0.319 0.326-0.731 0.505-1.159 0.505s-0.84-0.18-1.159-0.505c-1.744-1.762-4.841-5.353-4.841-8.638 0-0.9 0.155-1.792 0.457-2.624s0.743-1.588 1.301-2.225c0.557-0.637 1.219-1.142 1.947-1.486s1.508-0.522 2.296-0.522c0.788 0 1.568 0.177 2.296 0.522s1.389 0.85 1.947 1.486c0.557 0.637 0.999 1.393 1.301 2.225s0.457 1.724 0.457 2.624zM21 14.857c0-1.516-0.527-2.969-1.464-4.041s-2.209-1.674-3.536-1.674c-1.326 0-2.598 0.602-3.536 1.674s-1.464 2.525-1.464 4.041c0 1.266 0.615 2.737 1.57 4.209 0.934 1.438 2.087 2.716 2.933 3.572 0.136 0.141 0.313 0.219 0.497 0.219s0.361-0.078 0.497-0.219c0.846-0.856 2-2.134 2.933-3.572 0.955-1.472 1.57-2.943 1.57-4.209z">
            </path>
        </symbol>
        <symbol id="icon-dropdown" viewBox="0 0 48 32">
            <path stroke-linejoin="miter" stroke-linecap="round" stroke-miterlimit="4" stroke-width="5.3333"
                d="M2.667 2.667l21.333 21.333 21.333-21.333"></path>
        </symbol>
        <symbol id="icon-Vector-5" viewBox="0 0 564 32">
            <path stroke-linejoin="miter" stroke-linecap="round" stroke-miterlimit="4" stroke-width="6"
                d="M3 28.755c97.296-15.043 344.91-39.345 556.994-16.208"></path>
        </symbol>
        <symbol id="icon-virus" viewBox="0 0 32 32">
            <path
                d="M12 1.5c0-0.828 0.669-1.5 1.5-1.5h5c0.831 0 1.5 0.672 1.5 1.5s-0.669 1.5-1.5 1.5h-1v2.101c1.919 0.261 3.675 1.016 5.144 2.13l1.488-1.484-0.706-0.707c-0.588-0.586-0.588-1.536 0-2.121s1.538-0.586 2.119 0l3.538 3.538c0.588 0.581 0.588 1.531 0 2.119s-1.538 0.588-2.119 0l-0.712-0.706-1.481 1.488c1.112 1.469 1.869 3.225 2.131 5.144h2.1v-1c0-0.831 0.669-1.5 1.5-1.5s1.5 0.669 1.5 1.5v5c0 0.831-0.669 1.5-1.5 1.5s-1.5-0.669-1.5-1.5v-1h-2.1c-0.262 1.919-1.019 3.675-2.131 5.144l1.481 1.488 0.712-0.706c0.581-0.588 1.531-0.588 2.119 0s0.588 1.538 0 2.119l-3.538 3.538c-0.581 0.588-1.531 0.588-2.119 0s-0.588-1.538 0-2.119l0.706-0.712-1.488-1.481c-1.469 1.112-3.225 1.869-5.144 2.131v2.1h1c0.831 0 1.5 0.669 1.5 1.5s-0.669 1.5-1.5 1.5h-5c-0.831 0-1.5-0.669-1.5-1.5s0.669-1.5 1.5-1.5h1v-2.1c-1.919-0.262-3.675-1.019-5.144-2.131l-1.487 1.488 0.706 0.706c0.588 0.581 0.588 1.531 0 2.119s-1.537 0.588-2.119 0l-3.538-3.538c-0.586-0.581-0.586-1.531 0-2.119s1.536-0.588 2.121 0l0.707 0.706 1.484-1.488c-1.114-1.469-1.869-3.225-2.13-5.144h-2.101v1c0 0.831-0.672 1.5-1.5 1.5s-1.5-0.669-1.5-1.5v-5c0-0.831 0.672-1.5 1.5-1.5s1.5 0.669 1.5 1.5v1h2.101c0.261-1.919 1.016-3.675 2.13-5.144l-1.484-1.487-0.707 0.706c-0.586 0.588-1.536 0.588-2.121 0s-0.586-1.537 0-2.119l3.538-3.538c0.581-0.586 1.531-0.586 2.119 0s0.588 1.536 0 2.121l-0.706 0.707 1.488 1.484c1.469-1.114 3.225-1.869 5.144-2.13v-2.101h-1c-0.831 0-1.5-0.671-1.5-1.5zM12 11c-1.656 0-3 1.344-3 3s1.344 3 3 3c1.656 0 3-1.344 3-3s-1.344-3-3-3zM19 20.5c0.831 0 1.5-0.669 1.5-1.5s-0.669-1.5-1.5-1.5c-0.831 0-1.5 0.669-1.5 1.5s0.669 1.5 1.5 1.5z">
            </path>
        </symbol>
        <symbol id="icon-lungs" viewBox="0 0 35 32">
            <path
                d="M18.777 1.157c0-0.307-0.12-0.601-0.333-0.818s-0.502-0.339-0.803-0.339-0.59 0.122-0.803 0.339c-0.213 0.217-0.333 0.511-0.333 0.818v12.128l-1.136 0.826v-5.505c0-2.197-1.749-3.979-3.908-3.979-1.19 0-2.324 0.625-3.278 1.369-0.979 0.768-1.924 1.788-2.763 2.843-1.672 2.1-3.060 4.501-3.59 5.737-0.4 0.937-0.893 2.683-1.263 4.652-0.375 1.982-0.643 4.295-0.548 6.382 0.091 2.006 0.529 4.14 1.904 5.39 1.522 1.388 3.685 1.286 6.228-0.009l4.078-2.075c0.944-0.48 1.737-1.219 2.292-2.132s0.848-1.966 0.848-3.040v-1.767c0-0.307-0.12-0.601-0.333-0.818s-0.502-0.339-0.803-0.339-0.59 0.122-0.803 0.339c-0.213 0.217-0.333 0.511-0.333 0.818v1.767c0 0.645-0.177 1.277-0.51 1.825s-0.81 0.991-1.376 1.279l-4.076 2.075c-2.222 1.131-3.215 0.793-3.699 0.352-0.636-0.578-1.061-1.853-1.147-3.77-0.084-1.839 0.155-3.955 0.509-5.841 0.357-1.897 0.811-3.449 1.116-4.164 0.432-1.013 1.704-3.238 3.272-5.204 0.777-0.976 1.597-1.848 2.383-2.463 0.813-0.638 1.452-0.891 1.893-0.891 0.434 0 0.85 0.175 1.157 0.488s0.479 0.736 0.479 1.178v7.157l-4.067 2.961c-0.228 0.184-0.378 0.451-0.419 0.744s0.031 0.592 0.2 0.833c0.169 0.241 0.423 0.407 0.709 0.464s0.582-0.001 0.828-0.161l7.293-5.304 7.293 5.304c0.121 0.094 0.259 0.162 0.407 0.2s0.301 0.046 0.451 0.023c0.151-0.023 0.295-0.077 0.425-0.158s0.242-0.188 0.33-0.314c0.088-0.126 0.151-0.269 0.184-0.42s0.036-0.308 0.008-0.46c-0.028-0.152-0.085-0.298-0.169-0.427s-0.192-0.24-0.319-0.326l-4.067-2.958v-7.157c0-0.442 0.172-0.865 0.479-1.178s0.723-0.488 1.157-0.488c0.441 0 1.079 0.254 1.893 0.891 0.786 0.615 1.604 1.487 2.386 2.466 1.563 1.966 2.835 4.189 3.269 5.202 0.304 0.715 0.759 2.267 1.116 4.164 0.354 1.883 0.591 4.002 0.509 5.841-0.086 1.918-0.509 3.192-1.147 3.77-0.484 0.439-1.477 0.779-3.699-0.352l-4.078-2.075c-0.566-0.288-1.042-0.731-1.375-1.28s-0.509-1.18-0.509-1.825v-1.767c0-0.307-0.12-0.601-0.333-0.818s-0.502-0.339-0.803-0.339-0.59 0.122-0.803 0.339c-0.213 0.217-0.333 0.511-0.333 0.818v1.767c0 1.074 0.294 2.127 0.848 3.040s1.348 1.652 2.292 2.132l4.078 2.075c2.545 1.295 4.703 1.395 6.228 0.009 1.375-1.249 1.813-3.384 1.904-5.39 0.095-2.086-0.173-4.399-0.545-6.382-0.373-1.971-0.863-3.715-1.268-4.654-0.527-1.233-1.915-3.634-3.588-5.734-0.841-1.055-1.783-2.075-2.763-2.843-0.954-0.745-2.088-1.369-3.278-1.369-2.158 0-3.908 1.781-3.908 3.979v5.505l-1.136-0.826v-12.128z">
            </path>
        </symbol>
        <symbol id="icon-suppliment" viewBox="0 0 34 32">
            <path
                d="M2.111 11.099v-0.022c-0-2.188 0.642-4.327 1.845-6.148s2.914-3.24 4.915-4.080c2.002-0.84 4.205-1.063 6.333-0.641s4.083 1.471 5.62 3.014c1.21-0.603 2.561-0.856 3.904-0.732s2.627 0.62 3.708 1.434c1.081 0.814 1.919 1.913 2.42 3.178s0.646 2.643 0.419 3.985c0.334 0.031 0.657 0.132 0.951 0.295s0.551 0.386 0.755 0.654c0.205 0.268 0.352 0.576 0.434 0.904s0.095 0.67 0.040 1.003c-1.102 6.693-3.829 10.929-8.175 12.711v1.654c0 0.979-0.385 1.918-1.071 2.611s-1.617 1.081-2.587 1.081h-9.756c-0.97 0-1.901-0.389-2.587-1.081s-1.071-1.632-1.071-2.611v-1.654c-4.346-1.782-7.073-6.018-8.175-12.711-0.053-0.325-0.041-0.657 0.035-0.977s0.215-0.621 0.409-0.886c0.194-0.265 0.438-0.488 0.719-0.656s0.592-0.277 0.915-0.322v-0.002zM4.55 11.077h2.439c0-1.632 0.642-3.197 1.786-4.351s2.694-1.802 4.311-1.802c1.617 0 3.168 0.648 4.311 1.802s1.786 2.719 1.786 4.351h2.439c0-2.285-0.899-4.476-2.5-6.092s-3.772-2.523-6.036-2.523c-2.264 0-4.435 0.908-6.036 2.523s-2.5 3.807-2.5 6.092zM9.427 11.077h7.317c0-0.979-0.385-1.918-1.072-2.611s-1.617-1.081-2.587-1.081-1.901 0.389-2.587 1.081c-0.686 0.692-1.071 1.632-1.071 2.611zM26.173 11.077h2.612c0.184-0.728 0.201-1.488 0.050-2.223s-0.467-1.426-0.922-2.019c-0.456-0.593-1.039-1.074-1.707-1.405s-1.401-0.504-2.145-0.506c-0.585 0-1.141 0.103-1.659 0.293 0.432 0.699 0.788 1.452 1.061 2.242 0.465-0.116 0.953-0.092 1.404 0.069s0.845 0.453 1.134 0.838c0.289 0.385 0.459 0.848 0.489 1.33s-0.080 0.963-0.317 1.382zM22.841 27.077h-12.194v1.231c0 0.326 0.129 0.639 0.357 0.87s0.539 0.36 0.862 0.36h9.756c0.323 0 0.634-0.13 0.862-0.36s0.357-0.544 0.357-0.87v-1.231zM9.788 24.615h13.911c3.868-1.255 6.317-4.805 7.351-11.077h-28.613c1.034 6.272 3.483 9.822 7.351 11.077z">
            </path>
        </symbol>
        <symbol id="icon-mental-health" viewBox="0 0 29 32">
            <path
                d="M12.877 0c3.127 0 6.147 1.131 8.497 3.182s3.869 4.881 4.274 7.963l3.622 5.662c0.238 0.373 0.19 0.928-0.362 1.165l-3.153 1.341v4.688c0 0.849-0.339 1.663-0.943 2.263s-1.423 0.937-2.276 0.937h-3.218l-0.002 4.8h-14.487v-5.91c0-1.888-0.702-3.675-2.002-5.288-1.517-1.882-2.468-4.152-2.743-6.548s0.136-4.821 1.186-6.995c1.050-2.174 2.697-4.009 4.751-5.293s4.43-1.966 6.857-1.966zM12.877 3.2c-1.82-0-3.602 0.511-5.142 1.474s-2.776 2.339-3.563 3.969c-0.788 1.63-1.097 3.449-0.89 5.246s0.919 3.499 2.056 4.911c1.761 2.182 2.711 4.667 2.711 7.29v2.71h8.048l0.003-4.8h6.435v-6.797l2.495-1.062-2.484-3.88-0.092-0.707c-0.305-2.31-1.444-4.432-3.207-5.969s-4.027-2.385-6.371-2.385zM12.024 9.221l0.853 0.848 0.853-0.848c0.26-0.268 0.571-0.481 0.914-0.628s0.713-0.224 1.087-0.227 0.745 0.067 1.091 0.208c0.346 0.141 0.661 0.349 0.925 0.611s0.474 0.575 0.615 0.92c0.142 0.344 0.213 0.713 0.21 1.085s-0.081 0.739-0.228 1.081-0.362 0.651-0.631 0.909l-4.837 4.81-4.837-4.81c-0.269-0.258-0.484-0.567-0.631-0.909s-0.225-0.709-0.228-1.081c-0.003-0.372 0.068-0.741 0.21-1.085s0.351-0.657 0.615-0.92 0.579-0.471 0.925-0.611c0.346-0.141 0.717-0.211 1.091-0.208s0.744 0.081 1.087 0.227c0.344 0.147 0.654 0.36 0.914 0.628z">
            </path>
        </symbol>
        <symbol id="icon-check-mark" viewBox="0 0 32 32">
            <path d="M28 1l-18.6 20.455-5.4-4.090h-3l8.4 13.636 21.6-30h-3z"></path>
        </symbol>
        <symbol id="icon-right-arrow" viewBox="0 0 37 32">
            <path stroke-linejoin="round" stroke-linecap="round" stroke-miterlimit="4" stroke-width="4"
                d="M34 15.333h-32M20 28.667l14-13.333-14-13.333"></path>
        </symbol>
        <symbol id="icon-star" viewBox="0 0 33 32">
            <path
                d="M14.378 1.209c0.694-1.612 2.98-1.612 3.674 0l3.101 7.201c0.29 0.672 0.923 1.133 1.652 1.2l7.807 0.724c1.748 0.162 2.454 2.336 1.135 3.494l-5.89 5.174c-0.55 0.483-0.792 1.228-0.631 1.942l1.724 7.648c0.386 1.712-1.463 3.055-2.972 2.16l-6.741-4.003c-0.629-0.374-1.413-0.374-2.042 0l-6.741 4.003c-1.509 0.896-3.358-0.447-2.972-2.16l1.724-7.648c0.161-0.714-0.081-1.459-0.631-1.942l-5.89-5.174c-1.319-1.158-0.612-3.332 1.135-3.494l7.807-0.724c0.729-0.068 1.363-0.528 1.652-1.2l3.101-7.201z">
            </path>
        </symbol>
    </defs>
</svg>