<svg aria-hidden="true" style="position: absolute; width: 0; height: 0; overflow: hidden;" version="1.1"
    xmlns="http://www.w3.org/2000/svg" xmlns:xlink="http://www.w3.org/1999/xlink">
    <defs>
        <symbol id="icon-search" viewBox="0 0 32 32">
            <path
                d="M23.484 20.688c1.937-2.643 2.804-5.919 2.429-9.174s-1.966-6.248-4.453-8.38c-2.487-2.132-5.688-3.247-8.962-3.121s-6.379 1.484-8.695 3.801c-2.316 2.317-3.671 5.424-3.795 8.698s0.993 6.474 3.127 8.96c2.134 2.486 5.128 4.074 8.383 4.447s6.531-0.497 9.172-2.435h-0.002c0.060 0.080 0.124 0.156 0.196 0.23l7.7 7.7c0.375 0.375 0.884 0.586 1.414 0.586s1.040-0.21 1.415-0.585 0.586-0.884 0.586-1.414c0-0.53-0.21-1.039-0.585-1.415l-7.7-7.7c-0.072-0.072-0.148-0.139-0.23-0.2v0.002zM24 13c0 1.445-0.285 2.875-0.837 4.21s-1.363 2.547-2.384 3.569c-1.021 1.021-2.234 1.832-3.569 2.384s-2.765 0.837-4.21 0.837c-1.445 0-2.875-0.285-4.21-0.837s-2.547-1.363-3.569-2.384c-1.021-1.022-1.832-2.234-2.385-3.569s-0.837-2.765-0.837-4.21c0-2.917 1.159-5.715 3.222-7.778s4.861-3.222 7.778-3.222c2.917 0 5.715 1.159 7.778 3.222s3.222 4.861 3.222 7.778z">
            </path>
        </symbol>
        <symbol id="icon-ellipse" viewBox="0 0 64 32">
            <path
                d="M0 32c0-4.202 0.828-8.363 2.436-12.246s3.965-7.41 6.937-10.382c2.972-2.971 6.499-5.329 10.382-6.937s8.044-2.436 12.246-2.436 8.363 0.828 12.246 2.436c3.882 1.608 7.41 3.965 10.382 6.937s5.329 6.499 6.937 10.382c1.608 3.882 2.436 8.044 2.436 12.246h-64z">
            </path>
        </symbol>
        <symbol id="icon-user" viewBox="0 0 32 32">
            <path
                d="M8.647 24.571c-0.828 0.121-1.447 0.843-1.447 1.705-0.001 0.378 0.122 0.745 0.351 1.045 0.385 0.501 0.78 0.995 1.186 1.48h-2.062c-0.13-0.165-0.26-0.333-0.392-0.504-0.447-0.58-0.683-1.296-0.683-2.020 0-1.631 1.178-3.049 2.816-3.288 5.644-0.825 9.567-0.75 15.18 0.026 1.622 0.224 2.804 1.62 2.804 3.24 0.001 0.751-0.258 1.479-0.733 2.061-0.135 0.164-0.269 0.326-0.402 0.484h-2.113c0.436-0.49 0.861-0.99 1.277-1.498 0.238-0.291 0.37-0.664 0.37-1.048 0.003-0.401-0.14-0.79-0.402-1.094s-0.625-0.504-1.022-0.561c-5.483-0.759-9.254-0.828-14.73-0.028zM16 16.8c-1.273 0-2.494-0.506-3.394-1.406s-1.406-2.121-1.406-3.394c0-1.273 0.506-2.494 1.406-3.394s2.121-1.406 3.394-1.406c0.63 0 1.255 0.124 1.837 0.365s1.111 0.595 1.557 1.040c0.446 0.446 0.799 0.975 1.041 1.557s0.365 1.207 0.365 1.837c0 0.63-0.124 1.255-0.365 1.837s-0.595 1.112-1.041 1.557c-0.446 0.446-0.975 0.799-1.557 1.041s-1.207 0.365-1.837 0.365zM16 18.4c1.697 0 3.325-0.674 4.525-1.875s1.875-2.828 1.875-4.525c0-1.697-0.674-3.325-1.875-4.525s-2.828-1.875-4.525-1.875c-1.697 0-3.325 0.674-4.525 1.875s-1.875 2.828-1.875 4.525c0 1.697 0.674 3.325 1.875 4.525s2.828 1.875 4.525 1.875z">
            </path>
            <path
                d="M16 30.4c-7.953 0-14.4-6.447-14.4-14.4s6.447-14.4 14.4-14.4c7.953 0 14.4 6.447 14.4 14.4s-6.447 14.4-14.4 14.4zM16 32c8.837 0 16-7.163 16-16s-7.163-16-16-16c-8.837 0-16 7.163-16 16s7.163 16 16 16z">
            </path>
        </symbol>
        <symbol id="icon-location" viewBox="0 0 32 32">
            <path
                d="M16 30.4c-7.953 0-14.4-6.447-14.4-14.4s6.447-14.4 14.4-14.4c7.953 0 14.4 6.447 14.4 14.4s-6.447 14.4-14.4 14.4zM16 32c8.837 0 16-7.163 16-16s-7.163-16-16-16c-8.837 0-16 7.163-16 16s7.163 16 16 16z">
            </path>
            <path
                d="M17.5 14.857c0-0.455-0.158-0.891-0.439-1.212s-0.663-0.502-1.061-0.502c-0.398 0-0.779 0.181-1.061 0.502s-0.439 0.758-0.439 1.212c0 0.455 0.158 0.891 0.439 1.212s0.663 0.502 1.061 0.502c0.398 0 0.779-0.181 1.061-0.502s0.439-0.758 0.439-1.212zM22 14.857c0 3.285-3.097 6.875-4.841 8.638-0.319 0.326-0.731 0.505-1.159 0.505s-0.84-0.18-1.159-0.505c-1.744-1.762-4.841-5.353-4.841-8.638 0-0.9 0.155-1.792 0.457-2.624s0.743-1.588 1.301-2.225c0.557-0.637 1.219-1.142 1.947-1.486s1.508-0.522 2.296-0.522c0.788 0 1.568 0.177 2.296 0.522s1.389 0.85 1.947 1.486c0.557 0.637 0.999 1.393 1.301 2.225s0.457 1.724 0.457 2.624zM21 14.857c0-1.516-0.527-2.969-1.464-4.041s-2.209-1.674-3.536-1.674c-1.326 0-2.598 0.602-3.536 1.674s-1.464 2.525-1.464 4.041c0 1.266 0.615 2.737 1.57 4.209 0.934 1.438 2.087 2.716 2.933 3.572 0.136 0.141 0.313 0.219 0.497 0.219s0.361-0.078 0.497-0.219c0.846-0.856 2-2.134 2.933-3.572 0.955-1.472 1.57-2.943 1.57-4.209z">
            </path>
        </symbol>
        <symbol id="icon-dropdown" viewBox="0 0 48 32">
            <path stroke-linejoin="miter" stroke-linecap="round" stroke-miterlimit="4" stroke-width="5.3333"
                d="M2.667 2.667l21.333 21.333 21.333-21.333"></path>
        </symbol>
        <symbol id="icon-Vector-5" viewBox="0 0 564 32">
            <path stroke-linejoin="miter" stroke-linecap="round" stroke-miterlimit="4" stroke-width="6"
                d="M3 28.755c97.296-15.043 344.91-39.345 556.994-16.208"></path>
        </symbol>
    </defs>
</svg>